<svg width="24" height="24" viewBox="0 0 24 24" fill="none" xmlns="http://www.w3.org/2000/svg">
<path d="M7.50103 6.08496C4.98549 7.38341 3.39313 9.547 2.60186 10.8664C2.17959 11.5706 2.17959 12.429 2.60186 13.1332C3.79014 15.1146 6.78504 18.9998 12.0001 18.9998C14.6127 18.9998 16.6682 18.0247 18.2184 16.8023L14.7082 13.2921C14.2254 14.3021 13.1942 14.9998 12.0001 14.9998C10.3432 14.9998 9.00007 13.6567 9.00007 11.9998C9.00007 10.8057 9.69775 9.77448 10.7077 9.29165L7.50103 6.08496Z" fill="#1194D1"/>
<path d="M19.6824 15.438C20.4496 14.6013 21.017 13.7693 21.3984 13.1334C21.8206 12.4292 21.8206 11.5708 21.3984 10.8666C20.2101 8.88521 17.2152 5 12.0002 5C11.1204 5 10.3037 5.11058 9.54834 5.30394L19.6824 15.438Z" fill="#1194D1"/>
<path fill-rule="evenodd" clip-rule="evenodd" d="M2.29289 2.29289C2.68342 1.90237 3.31658 1.90237 3.70711 2.29289L21.7071 20.2929C22.0976 20.6834 22.0976 21.3166 21.7071 21.7071C21.3166 22.0976 20.6834 22.0976 20.2929 21.7071L2.29289 3.70711C1.90237 3.31658 1.90237 2.68342 2.29289 2.29289Z" fill="#1194D1"/>
</svg>
