<svg width="20" height="14" viewBox="0 0 20 14" fill="none" xmlns="http://www.w3.org/2000/svg">
<path fill-rule="evenodd" clip-rule="evenodd" d="M19.3983 8.1334C18.21 10.1148 15.2151 14 10.0001 14C4.78504 14 1.79014 10.1148 0.601859 8.1334C0.179589 7.4292 0.179589 6.5708 0.601859 5.8666C1.79014 3.88521 4.78504 0 10.0001 0C15.2151 0 18.21 3.88521 19.3983 5.8666C19.8205 6.5708 19.8205 7.4292 19.3983 8.1334ZM10.0001 10C11.6569 10 13.0001 8.6569 13.0001 7C13.0001 5.3431 11.6569 4 10.0001 4C8.3432 4 7.00007 5.3431 7.00007 7C7.00007 8.6569 8.3432 10 10.0001 10Z" fill="#B6B6B9"/>
</svg>
