<svg width="20" height="20" viewBox="0 0 20 20" fill="none" xmlns="http://www.w3.org/2000/svg">
<path d="M2 10C2 5.58172 5.58172 2 10 2C12.5171 2 14.7288 3.1635 16.1822 4.99321L14.5029 4.98829C13.9506 4.98667 13.5016 5.43307 13.5 5.98535C13.4984 6.53763 13.9448 6.98666 14.4971 6.98828L17.9399 6.99836C17.9783 7.00071 18.017 7.00084 18.0557 6.9987L18.4971 7C18.7628 7.00077 19.0179 6.89576 19.2061 6.70814C19.3942 6.52052 19.5 6.26572 19.5 6V2C19.5 1.44771 19.0523 1 18.5 1C17.9477 1 17.5 1.44772 17.5 2V3.44947C15.6875 1.34038 13.023 0 10 0C4.47715 0 0 4.47715 0 10C0 15.5228 4.47715 20 10 20C13.9359 20 17.2641 17.7278 18.8955 14.445C19.1413 13.9505 18.9396 13.3503 18.445 13.1045C17.9505 12.8587 17.3503 13.0604 17.1045 13.555C15.7905 16.1991 13.1315 18 10 18C5.58172 18 2 14.4183 2 10Z" fill="#1D1D1F"/>
</svg>
