<svg width="16" height="18" viewBox="0 0 16 18" fill="none" xmlns="http://www.w3.org/2000/svg">
<path d="M16 3C16 4.65685 14.6569 6 13 6C12.2739 6 11.6081 5.74205 11.0891 5.31278L5.9404 8.402C5.97948 8.5953 6 8.7952 6 9C6 9.2048 5.97948 9.4047 5.9404 9.598L11.0891 12.6872C11.6081 12.258 12.2739 12 13 12C14.6569 12 16 13.3431 16 15C16 16.6569 14.6569 18 13 18C11.3431 18 10 16.6569 10 15C10 14.7952 10.0205 14.5952 10.0596 14.4019L4.91097 11.3127C4.392 11.742 3.72613 12 3 12C1.34315 12 0 10.6569 0 9C0 7.3431 1.34315 6 3 6C3.72613 6 4.39201 6.25798 4.91097 6.68728L10.0596 3.59809C10.0205 3.40482 10 3.2048 10 3C10 1.34315 11.3431 0 13 0C14.6569 0 16 1.34315 16 3Z" fill="#1D1D1F"/>
</svg>
