<svg width="10" height="10" viewBox="0 0 10 10" fill="none" xmlns="http://www.w3.org/2000/svg">
<path fill-rule="evenodd" clip-rule="evenodd" d="M1.0229 1.02247C1.26698 0.778397 1.66271 0.778397 1.90679 1.02247L5.0004 4.11609L8.09397 1.02252C8.33805 0.778441 8.73378 0.778441 8.97785 1.02252C9.22193 1.2666 9.22193 1.66232 8.97785 1.9064L5.88428 4.99997L8.97785 8.09354C9.22193 8.33762 9.22193 8.73335 8.97785 8.97743C8.73378 9.2215 8.33805 9.2215 8.09397 8.97743L5.0004 5.88386L1.90679 8.97747C1.66271 9.22155 1.26698 9.22155 1.0229 8.97747C0.778824 8.73339 0.778824 8.33766 1.0229 8.09359L4.11652 4.99997L1.0229 1.90636C0.778824 1.66228 0.778824 1.26655 1.0229 1.02247Z" fill="#E53832"/>
</svg>
