<svg width="19" height="18" viewBox="0 0 19 18" fill="none" xmlns="http://www.w3.org/2000/svg">
<path d="M17.393 14.0112C17.393 14.2962 17.3296 14.5891 17.195 14.8741C17.0605 15.1591 16.8863 15.4283 16.6567 15.6816C16.2688 16.1091 15.8413 16.4179 15.3584 16.6158C14.8834 16.8137 14.3688 16.9166 13.8146 16.9166C13.0071 16.9166 12.1442 16.7266 11.2338 16.3387C10.3234 15.9508 9.41296 15.4283 8.51046 14.7712C7.60004 14.1062 6.73712 13.37 5.91379 12.5546C5.09837 11.7312 4.36212 10.8683 3.70504 9.96581C3.05587 9.06331 2.53337 8.16081 2.15337 7.26623C1.77337 6.36373 1.58337 5.50081 1.58337 4.67748C1.58337 4.13915 1.67837 3.62456 1.86837 3.14956C2.05837 2.66665 2.35921 2.22331 2.77879 1.82748C3.28546 1.32873 3.83962 1.08331 4.42546 1.08331C4.64712 1.08331 4.86879 1.13081 5.06671 1.22581C5.27254 1.32081 5.45462 1.46331 5.59712 1.66915L7.43379 4.2579C7.57629 4.45581 7.67921 4.6379 7.75046 4.81206C7.82171 4.97831 7.86129 5.14456 7.86129 5.29498C7.86129 5.48498 7.80587 5.67498 7.69504 5.85706C7.59212 6.03915 7.44171 6.22915 7.25171 6.41915L6.65004 7.04456C6.56296 7.13165 6.52337 7.23456 6.52337 7.36123C6.52337 7.42456 6.53129 7.47998 6.54712 7.54331C6.57087 7.60665 6.59462 7.65415 6.61046 7.70165C6.75296 7.9629 6.99837 8.30331 7.34671 8.71498C7.70296 9.12665 8.08296 9.54623 8.49462 9.96581C8.92212 10.3854 9.33379 10.7733 9.75337 11.1296C10.165 11.4779 10.5055 11.7154 10.7746 11.8579C10.8142 11.8737 10.8617 11.8975 10.9171 11.9212C10.9805 11.945 11.0438 11.9529 11.115 11.9529C11.2496 11.9529 11.3525 11.9054 11.4396 11.8183L12.0413 11.2246C12.2392 11.0266 12.4292 10.8762 12.6113 10.7812C12.7934 10.6704 12.9755 10.615 13.1734 10.615C13.3238 10.615 13.4821 10.6466 13.6563 10.7179C13.8305 10.7891 14.0125 10.8921 14.2105 11.0266L16.8309 12.8871C17.0367 13.0296 17.1792 13.1958 17.2663 13.3937C17.3455 13.5916 17.393 13.7896 17.393 14.0112Z" stroke="#86868B" stroke-width="1.5" stroke-miterlimit="10"/>
</svg>
