<svg width="20" height="20" viewBox="0 0 20 20" fill="none" xmlns="http://www.w3.org/2000/svg">
<path d="M15.4502 3.47487L10.8668 1.7582C10.3918 1.5832 9.61683 1.5832 9.14183 1.7582L4.5585 3.47487C3.67516 3.8082 2.9585 4.84154 2.9585 5.7832V12.5332C2.9585 13.2082 3.40016 14.0999 3.94183 14.4999L8.52516 17.9249C9.3335 18.5332 10.6585 18.5332 11.4668 17.9249L16.0502 14.4999C16.5918 14.0915 17.0335 13.2082 17.0335 12.5332V5.7832C17.0418 4.84154 16.3252 3.8082 15.4502 3.47487ZM10.6252 10.7249V12.9165C10.6252 13.2582 10.3418 13.5415 10.0002 13.5415C9.6585 13.5415 9.37516 13.2582 9.37516 12.9165V10.7249C8.5335 10.4582 7.91683 9.67487 7.91683 8.74987C7.91683 7.59987 8.85016 6.66654 10.0002 6.66654C11.1502 6.66654 12.0835 7.59987 12.0835 8.74987C12.0835 9.6832 11.4668 10.4582 10.6252 10.7249Z" fill="#1194D1"/>
</svg>
