<svg width="18" height="17" viewBox="0 0 18 17" fill="none" xmlns="http://www.w3.org/2000/svg">
    <path fill-rule="evenodd" clip-rule="evenodd" d="M4.22683 1.69306C3.11391 1.9713 2.33317 2.97125 2.33317 4.11842V14.6665H1.49984C1.0396 14.6665 0.666504 15.0396 0.666504 15.4998C0.666504 15.9601 1.0396 16.3332 1.49984 16.3332H16.4998C16.9601 16.3332 17.3332 15.9601 17.3332 15.4998C17.3332 15.0396 16.9601 14.6665 16.4998 14.6665H15.6665V7.1665C15.6665 5.7858 14.5473 4.6665 13.1665 4.6665H12.3332V2.86842C12.3332 1.24199 10.8047 0.0485962 9.22684 0.443063L4.22683 1.69306ZM13.9998 7.1665V14.6665H12.3332V6.33317H13.1665C13.6268 6.33317 13.9998 6.70625 13.9998 7.1665ZM6.49984 11.3332C6.0396 11.3332 5.6665 11.7063 5.6665 12.1665C5.6665 12.6268 6.0396 12.9998 6.49984 12.9998H8.1665C8.62675 12.9998 8.99984 12.6268 8.99984 12.1665C8.99984 11.7063 8.62675 11.3332 8.1665 11.3332H6.49984ZM5.6665 8.83317C5.6665 8.37292 6.0396 7.99984 6.49984 7.99984H8.1665C8.62675 7.99984 8.99984 8.37292 8.99984 8.83317C8.99984 9.29342 8.62675 9.6665 8.1665 9.6665H6.49984C6.0396 9.6665 5.6665 9.29342 5.6665 8.83317ZM6.49984 4.6665C6.0396 4.6665 5.6665 5.0396 5.6665 5.49984C5.6665 5.96007 6.0396 6.33317 6.49984 6.33317H8.1665C8.62675 6.33317 8.99984 5.96007 8.99984 5.49984C8.99984 5.0396 8.62675 4.6665 8.1665 4.6665H6.49984Z" fill="#1194D1" />
</svg>