<svg width="16" height="18" viewBox="0 0 16 18" fill="none" xmlns="http://www.w3.org/2000/svg">
<path fill-rule="evenodd" clip-rule="evenodd" d="M6.26795 1.14254C7.33975 0.507824 8.66025 0.507824 9.73205 1.14254L13.7679 3.53261C14.8397 4.16733 15.5 5.34034 15.5 6.60977V11.3899C15.5 12.6593 14.8397 13.8323 13.7679 14.4671L13.2509 14.7733L9.73205 16.8571C8.66025 17.4919 7.33975 17.4919 6.26795 16.8571L2.74913 14.7733L2.23205 14.4671C1.16025 13.8323 0.5 12.6593 0.5 11.3899V6.60977C0.5 5.34034 1.16025 4.16733 2.23205 3.53261L6.26795 1.14254ZM11.4126 11.6699C10.5191 11.0475 9.31923 10.6665 8 10.6665C6.68076 10.6665 5.48086 11.0475 4.58736 11.6699C4.15855 11.9686 4.24835 12.5822 4.69648 12.8511L7.57125 14.5759C7.83516 14.7343 8.16484 14.7343 8.42875 14.5759L11.3035 12.8511C11.7517 12.5822 11.8414 11.9686 11.4126 11.6699ZM8 3.99984C9.38071 3.99984 10.5 5.11913 10.5 6.49984C10.5 7.88055 9.38071 8.99984 8 8.99984C6.61929 8.99984 5.5 7.88055 5.5 6.49984C5.5 5.11913 6.61929 3.99984 8 3.99984Z" fill="#1194D1"/>
</svg>
