<svg width="20" height="20" viewBox="0 0 20 20" fill="none" xmlns="http://www.w3.org/2000/svg">
<path d="M10 1.6665C11.3807 1.6665 12.5 2.7858 12.5 4.1665V9.1665H8.33333C7.8731 9.1665 7.5 9.53959 7.5 9.99984C7.5 10.4601 7.8731 10.8332 8.33333 10.8332H12.5V15.8332C12.5 17.2139 11.3807 18.3332 10 18.3332H5C3.61929 18.3332 2.5 17.2139 2.5 15.8332V4.1665C2.5 2.7858 3.61929 1.6665 5 1.6665H10Z" fill="#E53832"/>
<path d="M12.5 10.8333H15.0715L13.5774 12.3274C13.252 12.6528 13.252 13.1805 13.5774 13.5059C13.9028 13.8313 14.4305 13.8313 14.7559 13.5059L17.0833 11.1785C17.7343 10.5277 17.7342 9.47233 17.0833 8.8215L14.7559 6.49408C14.4305 6.16864 13.9028 6.16864 13.5774 6.49408C13.252 6.81952 13.252 7.34715 13.5774 7.67259L15.0715 9.16667H12.5V10.8333Z" fill="#E53832"/>
</svg>
