<svg width="20" height="20" viewBox="0 0 20 20" fill="none" xmlns="http://www.w3.org/2000/svg">
<path d="M15.625 6.6665V8.4165C15.2583 8.3665 14.8417 8.3415 14.375 8.33317V6.6665C14.375 4.0415 13.6333 2.2915 10 2.2915C6.36667 2.2915 5.625 4.0415 5.625 6.6665V8.33317C5.15833 8.3415 4.74167 8.3665 4.375 8.4165V6.6665C4.375 4.24984 4.95833 1.0415 10 1.0415C15.0417 1.0415 15.625 4.24984 15.625 6.6665Z" fill="#1194D1"/>
<path d="M15.6248 8.41683C15.2582 8.36683 14.8415 8.34183 14.3748 8.3335H5.62484C5.15817 8.34183 4.7415 8.36683 4.37484 8.41683C2.24984 8.67516 1.6665 9.71683 1.6665 12.5002V14.1668C1.6665 17.5002 2.49984 18.3335 5.83317 18.3335H14.1665C17.4998 18.3335 18.3332 17.5002 18.3332 14.1668V12.5002C18.3332 9.71683 17.7498 8.67516 15.6248 8.41683ZM7.25817 13.9252C7.09984 14.0752 6.88317 14.1668 6.6665 14.1668C6.55817 14.1668 6.44984 14.1418 6.34984 14.1002C6.2415 14.0585 6.15817 14.0002 6.07484 13.9252C5.92484 13.7668 5.83317 13.5502 5.83317 13.3335C5.83317 13.2252 5.85817 13.1168 5.89984 13.0168C5.9415 12.9168 5.99984 12.8252 6.07484 12.7418C6.15817 12.6668 6.2415 12.6085 6.34984 12.5668C6.65817 12.4335 7.02484 12.5085 7.25817 12.7418C7.33317 12.8252 7.3915 12.9168 7.43317 13.0168C7.47484 13.1168 7.49984 13.2252 7.49984 13.3335C7.49984 13.5502 7.40817 13.7668 7.25817 13.9252ZM10.7665 13.6502C10.7248 13.7502 10.6665 13.8418 10.5915 13.9252C10.4332 14.0752 10.2165 14.1668 9.99984 14.1668C9.77484 14.1668 9.5665 14.0752 9.40817 13.9252C9.33317 13.8418 9.27484 13.7502 9.23317 13.6502C9.1915 13.5502 9.1665 13.4418 9.1665 13.3335C9.1665 13.1085 9.25817 12.9002 9.40817 12.7418C9.7165 12.4335 10.2748 12.4335 10.5915 12.7418C10.7415 12.9002 10.8332 13.1085 10.8332 13.3335C10.8332 13.4418 10.8082 13.5502 10.7665 13.6502ZM13.9248 13.9252C13.7665 14.0752 13.5498 14.1668 13.3332 14.1668C13.1165 14.1668 12.8998 14.0752 12.7415 13.9252C12.5915 13.7668 12.4998 13.5585 12.4998 13.3335C12.4998 13.1085 12.5915 12.9002 12.7415 12.7418C13.0582 12.4335 13.6165 12.4335 13.9248 12.7418C13.9582 12.7835 13.9915 12.8252 14.0248 12.8752C14.0582 12.9168 14.0832 12.9668 14.0998 13.0168C14.1248 13.0668 14.1415 13.1168 14.1498 13.1668C14.1582 13.2252 14.1665 13.2835 14.1665 13.3335C14.1665 13.5502 14.0748 13.7668 13.9248 13.9252Z" fill="#1194D1"/>
</svg>
