<svg width="18" height="17" viewBox="0 0 18 17" fill="none" xmlns="http://www.w3.org/2000/svg">
<path fill-rule="evenodd" clip-rule="evenodd" d="M0.666504 3C0.666504 1.61929 1.7858 0.5 3.1665 0.5H14.8332C16.2139 0.5 17.3332 1.61929 17.3332 3V11.3333C17.3332 12.7141 16.2139 13.8333 14.8332 13.8333H5.96821C5.77326 13.8333 5.58449 13.9017 5.43473 14.0265L3.40015 15.722C2.3146 16.6266 0.666504 15.8547 0.666504 14.4416V3ZM4.83317 5.5C4.83317 5.03977 5.20627 4.66667 5.6665 4.66667H12.3332C12.7934 4.66667 13.1665 5.03977 13.1665 5.5C13.1665 5.96023 12.7934 6.33333 12.3332 6.33333H5.6665C5.20627 6.33333 4.83317 5.96023 4.83317 5.5ZM5.6665 8C5.20627 8 4.83317 8.37308 4.83317 8.83333C4.83317 9.29358 5.20627 9.66667 5.6665 9.66667H8.99984C9.46009 9.66667 9.83317 9.29358 9.83317 8.83333C9.83317 8.37308 9.46009 8 8.99984 8H5.6665Z" fill="#1194D1"/>
</svg>
