<svg width="49" height="36" viewBox="0 0 49 36" fill="none" xmlns="http://www.w3.org/2000/svg">
<path d="M42.9999 0H6.00012C2.96606 0 0.5 2.46606 0.5 5.50012V30.4999C0.5 33.5339 2.96606 36 6.00012 36H42.9999C46.0339 36 48.5 33.5339 48.5 30.4999V5.50012C48.5 2.46606 46.0339 0 42.9999 0V0ZM15.5 7.99988C18.2561 7.99988 20.4999 10.244 20.4999 13.0001C20.4999 15.7559 18.2561 18 15.5 18C12.7439 18 10.5001 15.7559 10.5001 13.0001C10.5001 10.244 12.7439 7.99988 15.5 7.99988ZM24.5 26.5001C24.5 27.3281 23.828 28.0001 23 28.0001H8C7.172 28.0001 6.5 27.3281 6.5 26.5001V25.5C6.5 22.4659 8.96606 19.9999 12.0001 19.9999H18.9999C22.0339 19.9999 24.5 22.4659 24.5 25.5V26.5001ZM41 28.0001H30.0001C29.1721 28.0001 28.5001 27.3281 28.5001 26.5001C28.5001 25.6721 29.1721 25.0001 30.0001 25.0001H41C41.828 25.0001 42.5 25.6721 42.5 26.5001C42.5 27.3281 41.828 28.0001 41 28.0001ZM41 19.9999H30.0001C29.1721 19.9999 28.5001 19.3279 28.5001 18.4999C28.5001 17.6719 29.1721 16.9999 30.0001 16.9999H41C41.828 16.9999 42.5 17.6719 42.5 18.4999C42.5 19.3279 41.828 19.9999 41 19.9999ZM41 12H30.0001C29.1721 12 28.5001 11.328 28.5001 10.5C28.5001 9.672 29.1721 9 30.0001 9H41C41.828 9 42.5 9.672 42.5 10.5C42.5 11.328 41.828 12 41 12Z" fill="#1194D1"/>
</svg>
