<svg width="49" height="48" viewBox="0 0 49 48" fill="none" xmlns="http://www.w3.org/2000/svg">
<g clip-path="url(#clip0_8807_42336)">
<path d="M38.6881 4.64093H30.7295V6.05269C30.7295 9.48799 27.9351 12.2823 24.4998 12.2823C21.0645 12.2823 18.2702 9.48799 18.2702 6.05269V4.64093H10.3116C9.3384 4.64093 8.54688 5.43246 8.54688 6.40564V46.2353C8.54688 47.2085 9.3384 48 10.3116 48H38.6881C39.6612 48 40.4528 47.2085 40.4528 46.2353V6.40564C40.4528 5.43246 39.6612 4.64093 38.6881 4.64093ZM16.5535 31.1868C16.5535 28.6739 18.0029 26.4922 20.1092 25.4353C19.3676 24.4885 18.9252 23.2969 18.9252 22.0038C18.9252 18.9299 21.4259 16.4292 24.4998 16.4292C27.5737 16.4292 30.0744 18.9299 30.0744 22.0038C30.0744 23.2969 29.6321 24.4885 28.8904 25.4353C30.9968 26.4922 32.4462 28.6739 32.4462 31.1868V35.3468C32.4462 36.127 31.8137 36.7586 31.0344 36.7586H17.9652C17.1859 36.7586 16.5535 36.127 16.5535 35.3468V31.1868ZM32.2024 43.7289H16.7972C16.017 43.7289 15.3855 43.0974 15.3855 42.3172C15.3855 41.5379 16.017 40.9054 16.7972 40.9054H32.2024C32.9826 40.9054 33.6142 41.5379 33.6142 42.3172C33.6142 43.0974 32.9826 43.7289 32.2024 43.7289Z" fill="#1194D1"/>
<path d="M24.5001 24.7548C26.0194 24.7548 27.2511 23.5231 27.2511 22.0037C27.2511 20.4844 26.0194 19.2527 24.5001 19.2527C22.9807 19.2527 21.749 20.4844 21.749 22.0037C21.749 23.5231 22.9807 24.7548 24.5001 24.7548Z" fill="#1194D1"/>
<path d="M29.6226 31.1868C29.6226 29.1972 28.0038 27.5784 26.0141 27.5784H22.9854C20.9958 27.5784 19.377 29.1972 19.377 31.1868V33.9351H29.6226V31.1868Z" fill="#1194D1"/>
<path d="M24.4999 9.45882C26.3775 9.45882 27.906 7.93129 27.906 6.05271V0.941177C27.906 0.421365 27.4846 0 26.9648 0H22.0349C21.5151 0 21.0938 0.421365 21.0938 0.941177V6.05271C21.0938 7.93129 22.6222 9.45882 24.4999 9.45882Z" fill="#1194D1"/>
</g>
<defs>
<clipPath id="clip0_8807_42336">
<rect width="48" height="48" fill="white" transform="translate(0.5)"/>
</clipPath>
</defs>
</svg>
