<svg width="14" height="14" viewBox="0 0 14 14" fill="none" xmlns="http://www.w3.org/2000/svg">
<path d="M13.2997 0.709987C13.1129 0.522734 12.8592 0.417501 12.5947 0.417501C12.3302 0.417501 12.0766 0.522734 11.8897 0.709987L6.99973 5.58999L2.10973 0.699987C1.9229 0.512734 1.66924 0.407501 1.40473 0.407501C1.14021 0.407501 0.886558 0.512734 0.699727 0.699987C0.309727 1.08999 0.309727 1.71999 0.699727 2.10999L5.58973 6.99999L0.699727 11.89C0.309727 12.28 0.309727 12.91 0.699727 13.3C1.08973 13.69 1.71973 13.69 2.10973 13.3L6.99973 8.40999L11.8897 13.3C12.2797 13.69 12.9097 13.69 13.2997 13.3C13.6897 12.91 13.6897 12.28 13.2997 11.89L8.40973 6.99999L13.2997 2.10999C13.6797 1.72999 13.6797 1.08999 13.2997 0.709987Z" fill="#383838"/>
</svg>
