<svg width="18" height="18" viewBox="0 0 18 18" fill="none" xmlns="http://www.w3.org/2000/svg">
<path fill-rule="evenodd" clip-rule="evenodd" d="M17.3333 8.99984C17.3333 13.6022 13.6023 17.3332 8.99996 17.3332C4.39759 17.3332 0.666626 13.6022 0.666626 8.99984C0.666626 4.39747 4.39759 0.666504 8.99996 0.666504C13.6023 0.666504 17.3333 4.39747 17.3333 8.99984ZM11.7989 11.7988C11.5549 12.0428 11.1591 12.0428 10.9151 11.7988L8.99997 9.88367L7.08488 11.7988C6.8408 12.0428 6.44507 12.0428 6.20099 11.7988C5.95692 11.5547 5.95692 11.159 6.20099 10.9149L8.11608 8.99979L6.201 7.08471C5.95693 6.84063 5.95693 6.4449 6.20101 6.20082C6.44508 5.95675 6.84081 5.95675 7.08489 6.20082L8.99997 8.1159L10.915 6.20083C11.1591 5.95675 11.5548 5.95675 11.7989 6.20083C12.043 6.44491 12.043 6.84064 11.7989 7.08472L9.88385 8.99979L11.7989 10.9149C12.043 11.1589 12.043 11.5547 11.7989 11.7988Z" fill="#B6B6B9"/>
</svg>
