<svg width="22" height="20" viewBox="0 0 22 20" fill="none" xmlns="http://www.w3.org/2000/svg">
<path fill-rule="evenodd" clip-rule="evenodd" d="M0.25 10C0.25 4.61522 4.61522 0.25 10 0.25H12C17.3848 0.25 21.75 4.61522 21.75 10C21.75 15.3848 17.3848 19.75 12 19.75H5C2.37665 19.75 0.25 17.6234 0.25 15V10ZM10 1.75C5.44365 1.75 1.75 5.44365 1.75 10V15C1.75 16.7949 3.20507 18.25 5 18.25H12C16.5564 18.25 20.25 14.5563 20.25 10C20.25 5.44365 16.5564 1.75 12 1.75H10ZM6.25 8C6.25 7.58579 6.58579 7.25 7 7.25H15C15.4142 7.25 15.75 7.58579 15.75 8C15.75 8.41421 15.4142 8.75 15 8.75H7C6.58579 8.75 6.25 8.41421 6.25 8ZM6.25 12C6.25 11.5858 6.58579 11.25 7 11.25H11C11.4142 11.25 11.75 11.5858 11.75 12C11.75 12.4142 11.4142 12.75 11 12.75H7C6.58579 12.75 6.25 12.4142 6.25 12Z" fill="white"/>
</svg>
