<svg width="18" height="18" viewBox="0 0 18 18" fill="none" xmlns="http://www.w3.org/2000/svg">
<path fill-rule="evenodd" clip-rule="evenodd" d="M8.99996 1.2915C4.74276 1.2915 1.29163 4.74264 1.29163 8.99984C1.29163 13.257 4.74276 16.7082 8.99996 16.7082C13.2572 16.7082 16.7083 13.257 16.7083 8.99984C16.7083 4.74264 13.2572 1.2915 8.99996 1.2915ZM0.041626 8.99984C0.041626 4.05229 4.05241 0.0415039 8.99996 0.0415039C13.9475 0.0415039 17.9583 4.05229 17.9583 8.99984C17.9583 13.9474 13.9475 17.9582 8.99996 17.9582C4.05241 17.9582 0.041626 13.9474 0.041626 8.99984ZM8.99996 4.20817C9.34514 4.20817 9.62496 4.48799 9.62496 4.83317V8.54936L11.6976 9.24024C12.0251 9.3494 12.202 9.70335 12.0929 10.0308C11.9837 10.3583 11.6298 10.5353 11.3023 10.4261L8.80232 9.59276C8.5471 9.50769 8.37496 9.26886 8.37496 8.99984V4.83317C8.37496 4.48799 8.65478 4.20817 8.99996 4.20817Z" fill="#6E6E73"/>
</svg>
