<svg width="18" height="18" viewBox="0 0 18 18" fill="none" xmlns="http://www.w3.org/2000/svg">
<path fill-rule="evenodd" clip-rule="evenodd" d="M1.29167 8.58317C1.29167 12.6102 4.55626 15.8748 8.58334 15.8748C12.6104 15.8748 15.875 12.6102 15.875 8.58317C15.875 4.55609 12.6104 1.2915 8.58334 1.2915C4.55626 1.2915 1.29167 4.55609 1.29167 8.58317ZM8.58334 17.1248C3.86591 17.1248 0.0416718 13.3006 0.0416718 8.58317C0.0416718 3.86574 3.86591 0.0415039 8.58334 0.0415039C13.3008 0.0415039 17.125 3.86574 17.125 8.58317C17.125 10.7169 16.3426 12.668 15.0491 14.165L17.7753 16.8912C18.0194 17.1353 18.0194 17.531 17.7753 17.7751C17.5312 18.0192 17.1355 18.0192 16.8914 17.7751L14.1652 15.0489C12.6681 16.3424 10.7171 17.1248 8.58334 17.1248Z" fill="#6E6E73"/>
</svg>
