<svg width="15" height="14" viewBox="0 0 15 14" fill="none" xmlns="http://www.w3.org/2000/svg">
<path d="M13.7997 0.7102C13.6129 0.522948 13.3592 0.417715 13.0947 0.417715C12.8302 0.417715 12.5766 0.522948 12.3897 0.7102L7.49973 5.5902L2.60973 0.7002C2.4229 0.512948 2.16924 0.407715 1.90473 0.407715C1.64021 0.407715 1.38656 0.512948 1.19973 0.7002C0.809727 1.0902 0.809727 1.7202 1.19973 2.1102L6.08973 7.0002L1.19973 11.8902C0.809727 12.2802 0.809727 12.9102 1.19973 13.3002C1.58973 13.6902 2.21973 13.6902 2.60973 13.3002L7.49973 8.4102L12.3897 13.3002C12.7797 13.6902 13.4097 13.6902 13.7997 13.3002C14.1897 12.9102 14.1897 12.2802 13.7997 11.8902L8.90973 7.0002L13.7997 2.1102C14.1797 1.7302 14.1797 1.0902 13.7997 0.7102Z" fill="#1D1D1F"/>
</svg>
