<svg width="20" height="22" viewBox="0 0 20 22" fill="none" xmlns="http://www.w3.org/2000/svg">
<path fill-rule="evenodd" clip-rule="evenodd" d="M11.3296 2.04407C10.4877 1.65198 9.52935 1.65198 8.68746 2.04407L3.64915 4.39057C2.46072 4.94406 1.67987 6.18397 1.75503 7.5361C1.93301 10.7381 2.46573 12.9595 3.48127 14.7742C4.49658 16.5885 6.03501 18.0693 8.36157 19.7198C9.35713 20.4261 10.6625 20.427 11.6553 19.721C13.9861 18.0636 15.5128 16.5688 16.5187 14.7518C17.5256 12.9329 18.0502 10.7191 18.2439 7.55448C18.3273 6.19193 17.5444 4.93848 16.3479 4.38127L11.3296 2.04407ZM8.05417 0.684312C9.29756 0.10523 10.7195 0.105229 11.9629 0.684311L16.9812 3.02151C18.7198 3.83121 19.8633 5.64997 19.7411 7.64616C19.5405 10.9231 18.9891 13.3862 17.831 15.4783C16.6718 17.5722 14.9445 19.2226 12.5245 20.9435C11.0098 22.0206 9.00744 22.0171 7.49365 20.9432C5.08403 19.2337 3.34301 17.5987 2.1723 15.5067C1.0018 13.4152 0.441904 10.9397 0.257342 7.61935C0.147031 5.63481 1.28962 3.83477 3.01586 3.03081L8.05417 0.684312ZM10.0001 5.25C10.4143 5.25 10.7501 5.58579 10.7501 6L10.7501 13C10.7501 13.4142 10.4143 13.75 10.0001 13.75C9.58584 13.75 9.25005 13.4142 9.25005 13L9.25005 6C9.25005 5.58579 9.58584 5.25 10.0001 5.25Z" fill="#1D1D1F"/>
</svg>
